<svg width="40" height="40" viewBox="0 0 40 40" fill="none" xmlns="http://www.w3.org/2000/svg">
<path d="M0 12C0 5.37258 5.37258 0 12 0H28C34.6274 0 40 5.37258 40 12V28C40 34.6274 34.6274 40 28 40H12C5.37258 40 0 34.6274 0 28V12Z" fill="#BC1C1C" fill-opacity="0.1"/>
<path d="M25.1667 28.4375H14.8333C14.1738 28.4375 13.5257 28.2652 12.9532 27.9378C12.3807 27.6104 11.9036 27.1392 11.5692 26.5708C11.2347 26.0024 11.0545 25.3565 11.0463 24.697C11.0381 24.0375 11.2023 23.3874 11.5225 22.8108L16.6892 13.5108C17.0172 12.9204 17.4972 12.4284 18.0793 12.0859C18.6614 11.7434 19.3246 11.5628 20 11.5628C20.6754 11.5628 21.3386 11.7434 21.9207 12.0859C22.5029 12.4284 22.9828 12.9204 23.3108 13.5108L28.4775 22.8108C28.7978 23.3874 28.9619 24.0375 28.9537 24.697C28.9455 25.3565 28.7653 26.0024 28.4308 26.5708C28.0964 27.1392 27.6193 27.6104 27.0468 27.9378C26.4743 28.2652 25.8262 28.4375 25.1667 28.4375ZM20 12.8125C19.5468 12.8093 19.1012 12.9289 18.7106 13.1587C18.32 13.3885 17.999 13.7198 17.7817 14.1175L12.6158 23.4167C12.401 23.8029 12.2908 24.2386 12.2961 24.6805C12.3014 25.1224 12.4221 25.5553 12.6461 25.9363C12.8702 26.3173 13.1898 26.6331 13.5735 26.8526C13.9571 27.072 14.3914 27.1875 14.8333 27.1875H25.1667C25.6085 27.1872 26.0427 27.0716 26.4262 26.8521C26.8097 26.6326 27.1292 26.3168 27.3532 25.9359C27.5772 25.555 27.6979 25.1222 27.7033 24.6804C27.7087 24.2386 27.5987 23.803 27.3842 23.4167L22.2175 14.1167C22.0002 13.7192 21.6793 13.3881 21.2888 13.1584C20.8984 12.9288 20.453 12.8092 20 12.8125Z" fill="#BC1C1C"/>
<path d="M20 21.4583C19.8342 21.4583 19.6753 21.3925 19.5581 21.2753C19.4408 21.1581 19.375 20.9991 19.375 20.8333V17.5C19.375 17.3342 19.4408 17.1753 19.5581 17.0581C19.6753 16.9408 19.8342 16.875 20 16.875C20.1658 16.875 20.3247 16.9408 20.4419 17.0581C20.5592 17.1753 20.625 17.3342 20.625 17.5V20.8333C20.625 20.9991 20.5592 21.1581 20.4419 21.2753C20.3247 21.3925 20.1658 21.4583 20 21.4583Z" fill="#BC1C1C"/>
<path d="M20 24.1667C20.4603 24.1667 20.8334 23.7936 20.8334 23.3333C20.8334 22.8731 20.4603 22.5 20 22.5C19.5398 22.5 19.1667 22.8731 19.1667 23.3333C19.1667 23.7936 19.5398 24.1667 20 24.1667Z" fill="#BC1C1C"/>
</svg>
