<svg width="40" height="40" viewBox="0 0 40 40" fill="none" xmlns="http://www.w3.org/2000/svg">
<path d="M0 12C0 5.37258 5.37258 0 12 0H28C34.6274 0 40 5.37258 40 12V28C40 34.6274 34.6274 40 28 40H12C5.37258 40 0 34.6274 0 28V12Z" fill="#316094" fill-opacity="0.1"/>
<path d="M20 24.1667V23.3333M21.7361 17.5758C21.3889 17.0303 20.6945 16.6667 19.9306 16.6667C18.8195 16.6667 17.9167 17.4545 17.9167 18.4848C17.9167 18.4848 17.9167 20 20 20C22.0834 20 22.0834 21.5151 22.0834 21.5151C22.0834 22.5454 21.1806 23.3333 20.0695 23.3333C19.3056 23.3333 18.6111 22.9697 18.2639 22.4242M20 16.6667V15.8333" stroke="#316094" stroke-width="1.5" stroke-linecap="round" stroke-linejoin="round"/>
<path d="M20 12.5C15.8579 12.5 12.5 15.8579 12.5 20C12.5 24.1421 15.8579 27.5 20 27.5C24.1421 27.5 27.5 24.1421 27.5 20C27.5 15.8579 24.1421 12.5 20 12.5Z" stroke="#316094" stroke-width="1.5" stroke-linecap="round" stroke-linejoin="round"/>
</svg>
