<svg width="40" height="40" viewBox="0 0 40 40" fill="none" xmlns="http://www.w3.org/2000/svg">
<path d="M0 12C0 5.37258 5.37258 0 12 0H28C34.6274 0 40 5.37258 40 12V28C40 34.6274 34.6274 40 28 40H12C5.37258 40 0 34.6274 0 28V12Z" fill="#9BAE88" fill-opacity="0.1"/>
<path d="M25 24.9306C25 25.9926 22.5 26.6667 20 26.6667C17.0833 26.6667 15 25.9926 15 24.9306C15 23.3814 17.5 22.5 20 22.5C22.5 22.5 25 23.5417 25 24.9306Z" stroke="#9BAE88" stroke-width="1.5" stroke-linecap="round" stroke-linejoin="round"/>
<path d="M20 20C21.841 20 23.3334 18.5076 23.3334 16.6667C23.3334 14.8257 21.841 13.3333 20 13.3333C18.1591 13.3333 16.6667 14.8257 16.6667 16.6667C16.6667 18.5076 18.1591 20 20 20Z" stroke="#9BAE88" stroke-width="1.5" stroke-linecap="round" stroke-linejoin="round"/>
<path d="M27.0833 24.445C27.9541 24.1981 28.3333 23.7892 28.3333 23.2673C28.3333 22.259 26.8842 21.4711 25 21.2896" stroke="#9BAE88" stroke-width="1.5" stroke-linecap="round" stroke-linejoin="round"/>
<path d="M25 19.1667C26.1506 19.1667 27.0833 18.2339 27.0833 17.0833C27.0833 15.9327 26.1506 15 25 15" stroke="#9BAE88" stroke-width="1.5" stroke-linecap="round" stroke-linejoin="round"/>
<path d="M12.9167 24.445C12.0459 24.1981 11.6667 23.7892 11.6667 23.2673C11.6667 22.259 13.1158 21.4711 15 21.2896" stroke="#9BAE88" stroke-width="1.5" stroke-linecap="round" stroke-linejoin="round"/>
<path d="M15 19.1667C13.8494 19.1667 12.9167 18.2339 12.9167 17.0833C12.9167 15.9327 13.8494 15 15 15" stroke="#9BAE88" stroke-width="1.5" stroke-linecap="round" stroke-linejoin="round"/>
</svg>
