<svg width="40" height="40" viewBox="0 0 40 40" fill="none" xmlns="http://www.w3.org/2000/svg">
<path d="M0 12C0 5.37258 5.37258 0 12 0H28C34.6274 0 40 5.37258 40 12V28C40 34.6274 34.6274 40 28 40H12C5.37258 40 0 34.6274 0 28V12Z" fill="#FF5100" fill-opacity="0.1"/>
<path d="M15.7301 16.53C14.7412 15.2115 15.682 13.33 17.3301 13.33H22.6601C24.3082 13.33 25.2489 15.2115 24.2601 16.53L22.5613 18.795C22.028 19.5061 22.028 20.4839 22.5613 21.195L24.2601 23.46C25.2489 24.7785 24.3082 26.66 22.6601 26.66H17.3301C15.682 26.66 14.7412 24.7785 15.7301 23.46L17.4288 21.195C17.9622 20.4839 17.9622 19.5061 17.4288 18.795L15.7301 16.53Z" stroke="#FF5100" stroke-width="1.5"/>
</svg>
