<svg width="20" height="20" viewBox="0 0 20 20" fill="none" xmlns="http://www.w3.org/2000/svg">
<ellipse cx="8.33333" cy="14.5833" rx="5.83333" ry="2.91667" stroke="white" stroke-width="1.5" stroke-linejoin="round"/>
<circle cx="8.33333" cy="5.83333" r="3.33333" stroke="white" stroke-width="1.5" stroke-linejoin="round"/>
<path d="M12.7142 3.42358C14.4093 3.5339 15.7504 4.94381 15.7504 6.66675C15.7503 8.46151 14.2951 9.91654 12.5004 9.91675C12.1323 9.91675 11.7785 9.85468 11.4486 9.74194C11.9126 9.37165 12.3097 8.92156 12.6176 8.41089C13.5291 8.35035 14.2503 7.59365 14.2504 6.66675C14.2504 5.98037 13.8539 5.38803 13.2787 5.10132C13.1905 4.50063 12.9961 3.93493 12.7142 3.42358Z" fill="white"/>
<path d="M12.847 10.9236C14.1692 10.9592 15.3893 11.1951 16.3246 11.5848C16.831 11.7958 17.2905 12.0666 17.6342 12.4051C17.9803 12.7462 18.2503 13.2013 18.2504 13.7498C18.2503 14.2986 17.9804 14.7543 17.6342 15.0955C17.2905 15.4341 16.8311 15.7047 16.3246 15.9158C16.0192 16.0431 15.6823 16.1508 15.3226 16.244C15.6508 15.7288 15.8333 15.1699 15.8334 14.5838C15.8334 14.5536 15.8304 14.5231 15.8295 14.493C16.1827 14.3374 16.4308 14.1756 16.5814 14.0272C16.7406 13.8703 16.7503 13.7764 16.7504 13.7498C16.7503 13.723 16.74 13.6298 16.5814 13.4734C16.4192 13.3137 16.1454 13.1354 15.7474 12.9695C15.5906 12.9042 15.4188 12.8449 15.2357 12.7889C14.7177 12.0459 13.8882 11.4039 12.847 10.9236Z" fill="white"/>
</svg>
