<svg width="20" height="20" viewBox="0 0 20 20" fill="none" xmlns="http://www.w3.org/2000/svg">
<path d="M15.8333 10H9.99996V4.16669C9.99996 3.66669 9.66663 3.33335 9.16663 3.33335C4.99996 3.33335 1.66663 6.66669 1.66663 10.8334C1.66663 15 4.99996 18.3334 9.16663 18.3334C13.3333 18.3334 16.6666 15 16.6666 10.8334C16.6666 10.3334 16.3333 10 15.8333 10ZM9.99996 16.5834C6.83329 17.0834 3.83329 14.8334 3.41663 11.6667C2.91663 8.50002 5.16663 5.50002 8.33329 5.08335V10.8334C8.33329 11.3334 8.66663 11.6667 9.16663 11.6667H14.9166C14.5833 14.25 12.5833 16.25 9.99996 16.5834ZM12.5 1.66669C12 1.66669 11.6666 2.00002 11.6666 2.50002V7.50002C11.6666 8.00002 12 8.33335 12.5 8.33335H17.5C18 8.33335 18.3333 8.00002 18.3333 7.50002C18.3333 4.25002 15.75 1.66669 12.5 1.66669ZM13.3333 6.66669V3.41669C15 3.75002 16.25 5.00002 16.5833 6.66669H13.3333Z" fill="white"/>
</svg>
